<?xml version="1.0" encoding="UTF-8"?>
<svg id="Capa_7" xmlns="http://www.w3.org/2000/svg" version="1.1" viewBox="0 0 288 194.1">
  <!-- Generator: Adobe Illustrator 29.0.0, SVG Export Plug-In . SVG Version: 2.1.0 Build 186)  -->
  <defs>
    <style>
      .st0 {
        letter-spacing: 0em;
      }

      .st0, .st1, .st2, .st3, .st4, .st5 {
        isolation: isolate;
      }

      .st0, .st1, .st2, .st3, .st6, .st5 {
        fill: #263e2b;
      }

      .st0, .st1, .st2, .st3, .st5 {
        font-family: BellMT, 'Bell MT';
      }

      .st0, .st1, .st2, .st5 {
        font-size: 11.7px;
      }

      .st1 {
        letter-spacing: 0em;
      }

      .st2 {
        letter-spacing: 0em;
      }

      .st3 {
        font-size: 30.3px;
      }

      .st5 {
        letter-spacing: 0em;
      }
    </style>
  </defs>
  <g class="st4">
    <text class="st3" transform="translate(3.2 156.8)"><tspan x="0" y="0">Ligne &amp; Ombre Studio</tspan></text>
    <text class="st1" transform="translate(59.2 173.2)"><tspan x="0" y="0">A</tspan></text>
    <text class="st5" transform="translate(68.1 173.2)"><tspan x="0" y="0">R</tspan></text>
    <text class="st2" transform="translate(76.4 173.2)"><tspan x="0" y="0">Q</tspan></text>
    <text class="st0" transform="translate(85.5 173.2)"><tspan x="0" y="0">UITECTURA Y DISEÑO</tspan></text>
  </g>
  <g>
    <path class="st6" d="M157.3,48.7c4,14,8,27.9,12.1,42.1.3-.6.5-1,.8-1.3,1.1-1.8,2.7-2.8,4.9-2.7,2.2.2,3.8,1.3,4.5,3.3.3.8.8.9,1.5.9,10.2.2,31.6.7,32.2.9-.3,0-21.5.8-31.7,1.1-1.1,0-1.8.2-2.4,1.4-1,2.1-3.4,2.9-5.7,2.2-.9-.3-1.6-.7-2.6-1.3,2.9,11.1,5.8,22.1,8.8,33.3-.7-.5-10.1-23-14.5-33.9-.5-1.1-1-1.5-2.2-1.4-3.9.2-7.8.3-11.7.4-.8,0-1.3.2-1.5,1-.3.8-.9,1.5-1.7,2-.8.4-.9,1-.9,1.8-.7,7.6-2.2,23.6-2.6,23.8-.3-3.6-.7-7.1-1-10.6-.4-4.6-.8-9.2-1.2-13.7,0-.5-.3-.8-.7-1-1-.7-1.8-1.5-2.3-2.6-.2-.5-.5-.6-.9-.6-4.3-.1-8.6-.3-12.9-.5-.7,0-.9.4-1.1.9-3.1,7.5-6.1,15.1-9.3,22.6-1.6,3.8-5.1,11.7-5.3,11.8,2.5-11.1,5.6-22,8.5-33.2-.9.6-1.7,1.3-2.7,1.5-2.3.4-4.7-.6-5.7-2.7-.4-.8-.9-1-1.7-1-8.6-.3-30.7-.9-33.2-.9,0-.2,24.3-1,32.9-1.2.9,0,1.5-.2,1.9-1.2.7-1.8,2.2-2.9,4.2-3,2.2-.2,3.8.8,5,2.6.2.3.4.7.8,1.3,4-14.1,8-27.9,12.1-41.8.4.8.7,1.5,1,2.1,1.3,2.5,3.1,4.5,5.6,5.6,1,.5,1.1.9.7,1.9-4.4,10.4-8.7,20.8-13.1,31.1-.4,1-.3,1.3.8,1.2,3.7-.1,7.4-.2,11.1-.2.6,0,1-.1,1.2-.7.4-.9,1-1.7,1.8-2.2.8-.5,1-1.1,1.1-2,.7-6.7,1.5-13.4,2.3-20.2.4.2,1.8,14.1,2.5,20.7,0,.6.3,1,.8,1.3.9.5,1.7,1.2,2.1,2.2.3.8.8,1,1.5,1,3.7,0,7.3.2,11,.3,1,0,1.2-.2.8-1.2-4.3-10.2-13.2-31.4-13.4-31.8-.3-.5-.1-.9.4-1.1,3.3-1.6,6.9-7.9,7.1-8.1h0Z"/>
    <path class="st6" d="M157,20.7c-.3,5.1-2.5,9-7.3,11.2-.4.2-.9.3-.9,1,0,.7.3,1,.8,1.3,5,2.8,7.2,7.9,5.8,13.1-1.4,5.1-6,8.7-11.1,8.6-5.1,0-9.6-3.8-10.9-9-1.2-4.9,1.1-10.1,5.7-12.6.3-.2.9-.3,1-.6.2-.6.3-1.2-.6-1.6-5.6-2.5-8.4-8.2-7.1-14.3,1.2-5.5,6.4-9.5,12.2-9.4,5.9,0,10.9,4.2,12.1,10.1.1.8.2,1.5.3,2.3h0ZM148.9,28.6c3.6-1.5,5.6-5.8,4.8-9.9-.9-4.4-5-7.4-9.7-7.2-4.3.2-8.1,3.6-8.7,7.9-.5,4,1.7,8.1,4.8,9.1v-3.7c0-1.1.6-1.6,1.6-1.7,1.8,0,3.5,0,5.3,0,1.2,0,1.8.5,1.8,1.8,0,1.2,0,2.4,0,3.7h0ZM144.5,37.9c-3.7,0-6.5,2.9-6.5,6.5,0,3.6,3,6.6,6.5,6.6s6.5-3,6.5-6.7c0-3.6-2.9-6.3-6.5-6.3h0Z"/>
  </g>
</svg>