<?xml version="1.0" encoding="UTF-8"?>
<svg id="Capa_7" data-name="Capa 7" xmlns="http://www.w3.org/2000/svg" viewBox="0 0 577.62 288">
  <defs>
    <style>
      .cls-1, .cls-2 {
        fill: #263e2b;
      }

      .cls-3 {
        font-size: 45.57px;
      }

      .cls-4 {
        letter-spacing: .07em;
      }

      .cls-5 {
        letter-spacing: .03em;
      }

      .cls-2 {
        font-family: BellMT, 'Bell MT';
      }

      .cls-6 {
        letter-spacing: .05em;
      }

      .cls-7 {
        font-size: 17.53px;
      }
    </style>
  </defs>
  <text class="cls-2" transform="translate(251.38 119.61)"><tspan class="cls-3"><tspan x="0" y="0">Ligne &amp; Ombre </tspan></tspan><tspan class="cls-3"><tspan x="0" y="54.68" xml:space="preserve">Studio        </tspan></tspan><tspan class="cls-7"><tspan class="cls-4" x="0" y="79.22">A</tspan><tspan class="cls-5" x="13.36" y="79.22">R</tspan><tspan class="cls-6" x="25.85" y="79.22">Q</tspan><tspan class="cls-4" x="39.5" y="79.22">UITECTURA Y DISEÑO</tspan></tspan></text>
  <g>
    <path class="cls-1" d="M141.14,114.35c6.04,21.09,12.01,41.95,18.11,63.24.52-.93.79-1.48,1.12-2.01,1.71-2.73,4.11-4.28,7.4-4.04,3.26.24,5.63,1.89,6.73,4.99.44,1.23,1.15,1.29,2.18,1.31,15.28.33,47.52,1.02,48.37,1.33-.52.03-32.23,1.17-47.56,1.65-1.69.05-2.78.35-3.65,2.09-1.57,3.15-5.15,4.34-8.58,3.36-1.3-.37-2.42-1.07-3.89-1.95,4.42,16.73,8.77,33.16,13.22,49.97-1.03-.67-15.18-34.53-21.83-50.92-.68-1.69-1.45-2.22-3.3-2.11-5.87.34-11.75.46-17.63.6-1.16.03-1.88.31-2.31,1.5-.46,1.27-1.41,2.32-2.57,2.98-1.13.65-1.3,1.53-1.41,2.69-1.09,11.47-3.37,35.37-3.96,35.81-.5-5.39-1.01-10.68-1.48-15.97-.62-6.88-1.24-13.76-1.81-20.65-.07-.8-.47-1.17-1.03-1.56-1.47-1.01-2.73-2.22-3.4-3.93-.26-.67-.71-.87-1.39-.89-6.48-.22-12.97-.44-19.45-.73-1.11-.05-1.3.64-1.6,1.36-4.63,11.33-9.22,22.67-13.9,33.97-2.37,5.71-7.66,17.5-7.98,17.69,3.7-16.66,8.36-33.06,12.71-49.79-1.37.97-2.54,1.9-4.04,2.19-3.42.65-7.01-.91-8.59-4.06-.6-1.19-1.3-1.51-2.49-1.55-12.85-.42-46.05-1.31-49.81-1.31,0-.34,36.46-1.57,49.38-1.8,1.4-.02,2.23-.24,2.81-1.78,1.03-2.78,3.28-4.3,6.26-4.54,3.29-.27,5.7,1.28,7.55,3.86.35.49.61,1.04,1.18,2.03,5.94-21.16,12.01-41.86,18.23-62.87.58,1.26.98,2.25,1.47,3.18,1.93,3.7,4.61,6.72,8.46,8.45,1.54.7,1.67,1.37,1.05,2.84-6.58,15.57-13.07,31.17-19.65,46.74-.66,1.56-.45,1.88,1.24,1.82,5.57-.19,11.15-.24,16.73-.3.89,0,1.47-.18,1.82-1.08.54-1.4,1.54-2.51,2.78-3.28,1.17-.73,1.49-1.72,1.63-3,1.11-10.1,2.27-20.2,3.43-30.32.64.27,2.74,21.14,3.82,31.09.09.87.42,1.44,1.18,1.88,1.34.77,2.51,1.82,3.09,3.24.47,1.15,1.12,1.48,2.3,1.5,5.52.11,11.03.27,16.54.51,1.58.07,1.82-.28,1.2-1.76-6.49-15.34-19.78-47.21-20.05-47.75-.42-.83-.2-1.28.64-1.7,4.96-2.44,10.41-11.8,10.74-12.22Z"/>
    <path class="cls-1" d="M140.62,72.34c-.43,7.67-3.81,13.46-10.91,16.86-.65.31-1.3.43-1.32,1.44-.01,1.03.43,1.47,1.25,1.93,7.45,4.14,10.84,11.82,8.72,19.64-2.07,7.61-9.05,13.03-16.7,12.96-7.64-.07-14.42-5.66-16.44-13.55-1.87-7.3,1.7-15.16,8.58-18.93.53-.29,1.33-.49,1.49-.93.36-.95.4-1.85-.94-2.45-8.4-3.76-12.63-12.38-10.64-21.42,1.83-8.29,9.57-14.26,18.38-14.18,8.92.09,16.4,6.32,18.14,15.16.22,1.12.25,2.28.38,3.49ZM128.46,84.19c5.41-2.18,8.47-8.72,7.18-14.85-1.39-6.61-7.49-11.13-14.61-10.85-6.5.26-12.17,5.43-13.01,11.85-.78,5.94,2.53,12.24,7.29,13.71,0-1.89,0-3.76,0-5.62,0-1.63.87-2.48,2.47-2.51,2.66-.05,5.33-.06,7.99-.02,1.86.03,2.64.82,2.68,2.67.04,1.81,0,3.62,0,5.61ZM121.87,98.1c-5.5,0-9.8,4.29-9.78,9.78.02,5.35,4.51,9.84,9.83,9.84,5.36,0,9.79-4.57,9.77-10.09-.02-5.36-4.31-9.52-9.82-9.53Z"/>
  </g>
</svg>