<?xml version="1.0" encoding="UTF-8"?>
<svg id="Capa_7" data-name="Capa 7" xmlns="http://www.w3.org/2000/svg" viewBox="0 0 288 288">
  <defs>
    <style>
      .cls-1 {
        letter-spacing: .08em;
      }

      .cls-2 {
        letter-spacing: .03em;
      }

      .cls-3, .cls-4 {
        fill: #263e2b;
      }

      .cls-4 {
        font-family: BellMT, 'Bell MT';
      }

      .cls-5 {
        font-size: 9.49px;
      }

      .cls-6 {
        letter-spacing: .05em;
      }

      .cls-7 {
        font-size: 24.67px;
      }
    </style>
  </defs>
  <text class="cls-4" transform="translate(29.51 192.66)"><tspan class="cls-7"><tspan x="0" y="0" xml:space="preserve">Ligne &amp; Ombre Studio        </tspan></tspan><tspan class="cls-5"><tspan class="cls-1" x="45.56" y="13.28">A</tspan><tspan class="cls-2" x="52.79" y="13.28">R</tspan><tspan class="cls-6" x="59.55" y="13.28">Q</tspan><tspan class="cls-1" x="66.94" y="13.28">UITECTURA Y DISEÑO</tspan></tspan></text>
  <g>
    <path class="cls-3" d="M154.81,104.71c3.27,11.42,6.5,22.71,9.8,34.24.28-.5.43-.8.61-1.09.93-1.48,2.22-2.32,4.01-2.19,1.77.13,3.05,1.02,3.65,2.7.24.67.62.7,1.18.71,8.27.18,25.73.55,26.19.72-.28.01-17.45.63-25.75.9-.92.03-1.51.19-1.98,1.13-.85,1.7-2.79,2.35-4.64,1.82-.71-.2-1.31-.58-2.11-1.06,2.4,9.06,4.75,17.95,7.15,27.05-.56-.36-8.22-18.7-11.82-27.57-.37-.91-.79-1.2-1.79-1.14-3.18.19-6.36.25-9.55.32-.63.01-1.02.17-1.25.81-.25.69-.76,1.26-1.39,1.62-.61.35-.71.83-.76,1.45-.59,6.21-1.82,19.15-2.15,19.39-.27-2.92-.54-5.78-.8-8.65-.34-3.73-.67-7.45-.98-11.18-.04-.43-.25-.63-.56-.84-.8-.55-1.48-1.2-1.84-2.13-.14-.36-.39-.47-.75-.48-3.51-.12-7.02-.24-10.53-.4-.6-.03-.7.34-.86.73-2.51,6.13-4.99,12.27-7.53,18.39-1.28,3.09-4.15,9.48-4.32,9.58,2-9.02,4.53-17.9,6.88-26.95-.74.53-1.37,1.03-2.18,1.18-1.85.35-3.79-.49-4.65-2.2-.32-.64-.7-.82-1.35-.84-6.96-.23-24.93-.71-26.96-.71,0-.18,19.74-.85,26.73-.97.76-.01,1.21-.13,1.52-.96.56-1.5,1.78-2.33,3.39-2.46,1.78-.15,3.09.69,4.09,2.09.19.26.33.56.64,1.1,3.21-11.46,6.5-22.66,9.87-34.04.31.68.53,1.22.8,1.72,1.05,2,2.5,3.64,4.58,4.57.84.38.9.74.57,1.54-3.56,8.43-7.08,16.88-10.64,25.3-.36.85-.24,1.02.67.99,3.02-.1,6.04-.13,9.06-.16.48,0,.8-.1.99-.58.29-.76.83-1.36,1.51-1.78.64-.4.81-.93.88-1.62.6-5.47,1.23-10.93,1.86-16.41.35.14,1.49,11.45,2.07,16.83.05.47.23.78.64,1.02.73.42,1.36.98,1.67,1.75.26.62.61.8,1.24.81,2.99.06,5.97.15,8.96.28.86.04.99-.15.65-.95-3.51-8.31-10.71-25.56-10.86-25.85-.23-.45-.11-.69.34-.92,2.69-1.32,5.64-6.39,5.81-6.61Z"/>
    <path class="cls-3" d="M154.53,81.97c-.23,4.15-2.06,7.29-5.91,9.13-.35.17-.7.23-.71.78,0,.56.23.8.68,1.04,4.03,2.24,5.87,6.4,4.72,10.63-1.12,4.12-4.9,7.05-9.04,7.01-4.14-.04-7.81-3.06-8.9-7.34-1.01-3.95.92-8.21,4.65-10.25.28-.16.72-.27.81-.5.19-.51.22-1-.51-1.33-4.55-2.04-6.84-6.7-5.76-11.6.99-4.49,5.18-7.72,9.95-7.68,4.83.05,8.88,3.42,9.82,8.2.12.61.14,1.24.2,1.89ZM147.94,88.39c2.93-1.18,4.59-4.72,3.89-8.04-.75-3.58-4.06-6.03-7.91-5.87-3.52.14-6.59,2.94-7.04,6.42-.42,3.22,1.37,6.63,3.95,7.42,0-1.02,0-2.03,0-3.04,0-.88.47-1.34,1.33-1.36,1.44-.03,2.89-.03,4.33-.01,1.01.01,1.43.44,1.45,1.44.02.98,0,1.96,0,3.04ZM144.38,95.92c-2.98,0-5.31,2.32-5.3,5.29.01,2.89,2.44,5.33,5.32,5.33,2.9,0,5.3-2.48,5.29-5.46-.01-2.9-2.33-5.15-5.31-5.16Z"/>
  </g>
</svg>