<?xml version="1.0" encoding="UTF-8"?>
<svg id="Capa_7" data-name="Capa 7" xmlns="http://www.w3.org/2000/svg" viewBox="0 0 577.62 124.74">
  <defs>
    <style>
      .cls-1 {
        letter-spacing: .08em;
      }

      .cls-2 {
        letter-spacing: .03em;
      }

      .cls-3 {
        letter-spacing: .05em;
      }

      .cls-4, .cls-5 {
        fill: #263e2b;
      }

      .cls-6 {
        letter-spacing: .08em;
      }

      .cls-5 {
        font-family: BellMT, 'Bell MT';
      }

      .cls-7 {
        letter-spacing: .07em;
      }

      .cls-8 {
        letter-spacing: .03em;
      }

      .cls-9 {
        font-size: 9.49px;
      }

      .cls-10 {
        font-size: 18px;
      }

      .cls-11 {
        letter-spacing: .05em;
      }

      .cls-12 {
        font-size: 43px;
      }

      .cls-13 {
        font-size: 24.67px;
      }
    </style>
  </defs>
  <text class="cls-5" transform="translate(-278.49 111.03)"><tspan class="cls-13"><tspan x="0" y="0" xml:space="preserve">Ligne &amp; Ombre Studio        </tspan></tspan><tspan class="cls-9"><tspan class="cls-1" x="45.56" y="13.28">A</tspan><tspan class="cls-2" x="52.79" y="13.28">R</tspan><tspan class="cls-11" x="59.55" y="13.28">Q</tspan><tspan class="cls-1" x="66.94" y="13.28">UITECTURA Y DISEÑO</tspan></tspan></text>
  <text class="cls-5" transform="translate(160.07 65.23)"><tspan class="cls-12"><tspan x="0" y="0" xml:space="preserve">Ligne &amp; Ombre Studio        </tspan></tspan><tspan class="cls-10"><tspan class="cls-7" x="68.79" y="23">A</tspan><tspan class="cls-8" x="82.51" y="23">R</tspan><tspan class="cls-3" x="95.33" y="23">Q</tspan><tspan class="cls-6" x="109.36" y="23">UITECTURA Y DISEÑO</tspan></tspan></text>
  <g>
    <path class="cls-4" d="M96.21,44.86c3.56,12.45,7.09,24.76,10.69,37.33.3-.55.47-.88.66-1.18,1.01-1.61,2.42-2.53,4.37-2.39,1.93.14,3.33,1.12,3.98,2.95.26.73.68.76,1.28.77,9.02.19,28.05.6,28.56.79-.31.01-19.03.69-28.08.98-1,.03-1.64.21-2.16,1.24-.93,1.86-3.04,2.56-5.06,1.99-.77-.22-1.43-.63-2.3-1.15,2.61,9.88,5.18,19.58,7.8,29.5-.61-.4-8.96-20.39-12.89-30.06-.4-1-.86-1.31-1.95-1.25-3.46.2-6.94.27-10.41.35-.69.02-1.11.19-1.36.88-.27.75-.83,1.37-1.52,1.76-.67.38-.77.91-.83,1.59-.64,6.77-1.99,20.88-2.34,21.14-.3-3.18-.59-6.31-.88-9.43-.37-4.06-.73-8.13-1.07-12.19-.04-.47-.28-.69-.61-.92-.87-.6-1.61-1.31-2.01-2.32-.16-.4-.42-.51-.82-.53-3.83-.13-7.66-.26-11.48-.43-.65-.03-.77.38-.94.8-2.73,6.69-5.44,13.38-8.21,20.06-1.4,3.37-4.52,10.33-4.71,10.44,2.19-9.83,4.94-19.52,7.5-29.39-.81.57-1.5,1.12-2.38,1.29-2.02.39-4.14-.54-5.07-2.4-.35-.7-.77-.89-1.47-.91-7.58-.25-27.19-.78-29.4-.78,0-.2,21.53-.93,29.15-1.06.83-.01,1.32-.14,1.66-1.05.61-1.64,1.94-2.54,3.7-2.68,1.94-.16,3.37.75,4.46,2.28.21.29.36.61.7,1.2,3.51-12.49,7.09-24.71,10.76-37.12.34.75.58,1.33.87,1.88,1.14,2.18,2.72,3.96,4.99,4.99.91.41.99.81.62,1.68-3.88,9.19-7.72,18.4-11.6,27.59-.39.92-.26,1.11.73,1.08,3.29-.11,6.58-.14,9.88-.18.52,0,.87-.11,1.08-.64.32-.82.91-1.48,1.64-1.94.69-.43.88-1.01.96-1.77.65-5.96,1.34-11.92,2.02-17.9.38.16,1.62,12.48,2.26,18.35.06.52.25.85.7,1.11.79.45,1.48,1.07,1.83,1.91.28.68.66.87,1.36.89,3.26.07,6.51.16,9.77.3.93.04,1.08-.17.71-1.04-3.83-9.06-11.68-27.87-11.84-28.19-.25-.49-.12-.76.38-1,2.93-1.44,6.15-6.96,6.34-7.21Z"/>
    <path class="cls-4" d="M95.91,20.07c-.25,4.53-2.25,7.95-6.44,9.95-.38.18-.77.25-.78.85,0,.61.25.87.74,1.14,4.4,2.44,6.4,6.98,5.15,11.59-1.22,4.49-5.34,7.69-9.86,7.65-4.51-.04-8.51-3.34-9.7-8-1.1-4.31,1-8.95,5.07-11.17.31-.17.78-.29.88-.55.21-.56.24-1.09-.56-1.45-4.96-2.22-7.46-7.31-6.28-12.65,1.08-4.89,5.65-8.42,10.85-8.37,5.26.05,9.68,3.73,10.71,8.95.13.66.15,1.35.22,2.06ZM88.73,27.06c3.19-1.29,5-5.15,4.24-8.77-.82-3.9-4.42-6.57-8.62-6.4-3.84.15-7.18,3.2-7.68,7-.46,3.51,1.49,7.23,4.3,8.1,0-1.12,0-2.22,0-3.32,0-.96.52-1.46,1.46-1.48,1.57-.03,3.15-.03,4.72-.01,1.1.02,1.56.48,1.58,1.57.02,1.07,0,2.13,0,3.31ZM84.84,35.27c-3.24,0-5.79,2.54-5.78,5.77.01,3.16,2.66,5.81,5.8,5.81,3.16,0,5.78-2.7,5.77-5.96-.01-3.16-2.54-5.62-5.79-5.62Z"/>
  </g>
</svg>